<svg width="28" height="29" viewBox="0 0 28 29" fill="none" xmlns="http://www.w3.org/2000/svg">
<path d="M20.0114 17.9329H18.7467L18.2985 17.5097C19.8674 15.7233 20.8119 13.404 20.8119 10.881C20.8119 5.25511 16.1532 0.694885 10.4059 0.694885C4.65866 0.694885 0 5.25511 0 10.881C0 16.5068 4.65866 21.067 10.4059 21.067C12.9834 21.067 15.3528 20.1425 17.1778 18.6067L17.6101 19.0455V20.2835L25.6146 28.1033L28 25.7683L20.0114 17.9329ZM10.4059 17.9329C6.41967 17.9329 3.20183 14.783 3.20183 10.881C3.20183 6.97891 6.41967 3.82906 10.4059 3.82906C14.3922 3.82906 17.6101 6.97891 17.6101 10.881C17.6101 14.783 14.3922 17.9329 10.4059 17.9329Z" fill="#EC1D24" fill-opacity="0.85"/>
</svg>
